<svg width="48" height="49" viewBox="0 0 48 49" fill="none" xmlns="http://www.w3.org/2000/svg">
<path d="M23.25 45.5115H5.25C4.0125 45.5115 3 44.499 3 43.2615V5.76147C3 4.52397 4.0125 3.51147 5.25 3.51147H32.25C33.4875 3.51147 34.5 4.52397 34.5 5.76147V20.0115C34.5 20.424 34.8375 20.7615 35.25 20.7615C35.6625 20.7615 36 20.424 36 20.0115V5.76147C36 3.69147 34.32 2.01147 32.25 2.01147H5.25C3.18 2.01147 1.5 3.69147 1.5 5.76147V43.2615C1.5 45.3315 3.18 47.0115 5.25 47.0115H23.25C23.6625 47.0115 24 46.674 24 46.2615C24 45.849 23.6625 45.5115 23.25 45.5115Z" fill="#1C1C1C"/>
<path d="M42.75 22.2615H29.25C27.18 22.2615 25.5 23.9415 25.5 26.0115V43.2615C25.5 45.3315 27.18 47.0115 29.25 47.0115H42.75C44.82 47.0115 46.5 45.3315 46.5 43.2615V26.0115C46.5 23.9415 44.82 22.2615 42.75 22.2615ZM45 43.2615C45 44.499 43.9875 45.5115 42.75 45.5115H29.25C28.0125 45.5115 27 44.499 27 43.2615V26.0115C27 24.774 28.0125 23.7615 29.25 23.7615H42.75C43.9875 23.7615 45 24.774 45 26.0115V43.2615Z" fill="#1C1C1C"/>
<path d="M42 26.0115H30C29.5875 26.0115 29.25 26.349 29.25 26.7615V31.2615C29.25 31.674 29.5875 32.0115 30 32.0115H42C42.4125 32.0115 42.75 31.674 42.75 31.2615V26.7615C42.75 26.349 42.4125 26.0115 42 26.0115ZM41.25 30.5115H30.75V27.5115H41.25V30.5115Z" fill="#1C1C1C"/>
<path d="M31.5 34.2615H30C29.5875 34.2615 29.25 34.599 29.25 35.0115C29.25 35.424 29.5875 35.7615 30 35.7615H31.5C31.9125 35.7615 32.25 35.424 32.25 35.0115C32.25 34.599 31.9125 34.2615 31.5 34.2615Z" fill="#1C1C1C"/>
<path d="M36.75 34.2615H35.25C34.8375 34.2615 34.5 34.599 34.5 35.0115C34.5 35.424 34.8375 35.7615 35.25 35.7615H36.75C37.1625 35.7615 37.5 35.424 37.5 35.0115C37.5 34.599 37.1625 34.2615 36.75 34.2615Z" fill="#1C1C1C"/>
<path d="M42 34.2615H40.5C40.0875 34.2615 39.75 34.599 39.75 35.0115C39.75 35.424 40.0875 35.7615 40.5 35.7615H42C42.4125 35.7615 42.75 35.424 42.75 35.0115C42.75 34.599 42.4125 34.2615 42 34.2615Z" fill="#1C1C1C"/>
<path d="M31.5 38.0115H30C29.5875 38.0115 29.25 38.349 29.25 38.7615C29.25 39.174 29.5875 39.5115 30 39.5115H31.5C31.9125 39.5115 32.25 39.174 32.25 38.7615C32.25 38.349 31.9125 38.0115 31.5 38.0115Z" fill="#1C1C1C"/>
<path d="M36.75 38.0115H35.25C34.8375 38.0115 34.5 38.349 34.5 38.7615C34.5 39.174 34.8375 39.5115 35.25 39.5115H36.75C37.1625 39.5115 37.5 39.174 37.5 38.7615C37.5 38.349 37.1625 38.0115 36.75 38.0115Z" fill="#1C1C1C"/>
<path d="M42 38.0115H40.5C40.0875 38.0115 39.75 38.349 39.75 38.7615C39.75 39.174 40.0875 39.5115 40.5 39.5115H42C42.4125 39.5115 42.75 39.174 42.75 38.7615C42.75 38.349 42.4125 38.0115 42 38.0115Z" fill="#1C1C1C"/>
<path d="M31.5 41.7615H30C29.5875 41.7615 29.25 42.099 29.25 42.5115C29.25 42.924 29.5875 43.2615 30 43.2615H31.5C31.9125 43.2615 32.25 42.924 32.25 42.5115C32.25 42.099 31.9125 41.7615 31.5 41.7615Z" fill="#1C1C1C"/>
<path d="M36.75 41.7615H35.25C34.8375 41.7615 34.5 42.099 34.5 42.5115C34.5 42.924 34.8375 43.2615 35.25 43.2615H36.75C37.1625 43.2615 37.5 42.924 37.5 42.5115C37.5 42.099 37.1625 41.7615 36.75 41.7615Z" fill="#1C1C1C"/>
<path d="M42 41.7615H40.5C40.0875 41.7615 39.75 42.099 39.75 42.5115C39.75 42.924 40.0875 43.2615 40.5 43.2615H42C42.4125 43.2615 42.75 42.924 42.75 42.5115C42.75 42.099 42.4125 41.7615 42 41.7615Z" fill="#1C1C1C"/>
<path d="M21.75 11.3864C21.75 11.7989 22.0875 12.1364 22.5 12.1364C22.9125 12.1364 23.25 11.7989 23.25 11.3864C23.25 9.68391 21.6525 8.31891 19.5 8.05641V7.25391C19.5 6.84141 19.1625 6.50391 18.75 6.50391C18.3375 6.50391 18 6.84141 18 7.25391V8.05641C15.8475 8.31891 14.25 9.68391 14.25 11.3864C14.25 13.0889 15.8475 14.4539 18 14.7164V18.4439C16.725 18.2264 15.75 17.4914 15.75 16.6364C15.75 16.2239 15.4125 15.8864 15 15.8864C14.5875 15.8864 14.25 16.2239 14.25 16.6364C14.25 18.3389 15.8475 19.7039 18 19.9664V20.7614C18 21.1739 18.3375 21.5114 18.75 21.5114C19.1625 21.5114 19.5 21.1739 19.5 20.7614V19.9664C21.6525 19.7039 23.25 18.3389 23.25 16.6364C23.25 14.9339 21.6525 13.5689 19.5 13.3064V9.57891C20.775 9.79641 21.75 10.5314 21.75 11.3864ZM15.75 11.3864C15.75 10.5314 16.725 9.79641 18 9.57891V13.1864C16.725 12.9689 15.75 12.2339 15.75 11.3789V11.3864ZM21.75 16.6364C21.75 17.4914 20.775 18.2264 19.5 18.4439V14.8364C20.775 15.0539 21.75 15.7889 21.75 16.6439V16.6364Z" fill="#1C1C1C"/>
<path d="M21.75 24.5115H9C8.5875 24.5115 8.25 24.849 8.25 25.2615C8.25 25.674 8.5875 26.0115 9 26.0115H21.75C22.1625 26.0115 22.5 25.674 22.5 25.2615C22.5 24.849 22.1625 24.5115 21.75 24.5115Z" fill="#1C1C1C"/>
<path d="M21.75 30.5115H9C8.5875 30.5115 8.25 30.849 8.25 31.2615C8.25 31.674 8.5875 32.0115 9 32.0115H21.75C22.1625 32.0115 22.5 31.674 22.5 31.2615C22.5 30.849 22.1625 30.5115 21.75 30.5115Z" fill="#1C1C1C"/>
<path d="M21.75 36.5115H9C8.5875 36.5115 8.25 36.849 8.25 37.2615C8.25 37.674 8.5875 38.0115 9 38.0115H21.75C22.1625 38.0115 22.5 37.674 22.5 37.2615C22.5 36.849 22.1625 36.5115 21.75 36.5115Z" fill="#1C1C1C"/>
</svg>
