<svg width="22" height="22" viewBox="0 0 22 22" fill="none" xmlns="http://www.w3.org/2000/svg">
<path d="M7.00673 15.028L14.2699 15.0304C18.7575 15.0319 19.441 12.2129 20.27 8.1015C20.5092 6.91561 20.6288 6.32267 20.3419 5.92751C20.0549 5.53235 19.5046 5.53216 18.404 5.5318L5.00989 5.52734" stroke="#737373" stroke-width="1.5" stroke-linecap="round"/>
<path d="M7.0067 15.0282L4.38958 2.54225C4.16729 1.65184 3.36753 1.02698 2.4498 1.02668L1.51135 1.02637" stroke="#737373" stroke-width="1.5" stroke-linecap="round"/>
<path d="M7.88671 15.0283L7.47528 15.0282C6.11193 15.0277 5.00633 16.1786 5.00586 17.5987C5.00578 17.8354 5.18992 18.0274 5.41715 18.0275L16.5057 18.0312" stroke="#737373" stroke-width="1.5" stroke-linecap="round" stroke-linejoin="round"/>
<path d="M9.50468 21.0288C10.3331 21.0291 11.0049 20.3577 11.0052 19.5293C11.0055 18.7009 10.3341 18.0291 9.50568 18.0288C8.67725 18.0285 8.00545 18.6999 8.00518 19.5283C8.0049 20.3567 8.67625 21.0285 9.50468 21.0288Z" stroke="#737373" stroke-width="1.5"/>
<path d="M16.5047 21.0313C17.3331 21.0315 18.0049 20.3602 18.0052 19.5318C18.0055 18.7033 17.3341 18.0315 16.5057 18.0313C15.6772 18.031 15.0055 18.7023 15.0052 19.5308C15.0049 20.3592 15.6763 21.031 16.5047 21.0313Z" stroke="#737373" stroke-width="1.5"/>
</svg>
