<svg width="33" height="36" viewBox="0 0 33 36" fill="none" xmlns="http://www.w3.org/2000/svg">
<path d="M31.5 21.1435L31.4998 13.2189C31.4988 11.3268 31.4983 10.3807 31.0383 9.58747C30.5783 8.79424 29.7573 8.33102 28.1153 7.40457L19.74 2.67897C18.1563 1.78541 17.3645 1.33862 16.5 1.33862C15.6355 1.33862 14.8437 1.78541 13.26 2.67897L4.88467 7.40457C3.2427 8.33102 2.42172 8.79424 1.96167 9.58747C1.5016 10.3807 1.50115 11.3268 1.50022 13.2189L1.5 21.1435C1.5 27.521 1.5 30.7096 3.45262 32.6908C5.40525 34.672 8.54793 34.672 14.8333 34.672H18.1667C24.452 34.672 27.5948 34.672 29.5473 32.6908C31.5 30.7096 31.5 27.521 31.5 21.1435Z" stroke="#737373" stroke-width="1.5" stroke-linecap="round"/>
<path d="M13.1667 19.672H9.83337M23.1667 19.672H19.8334M13.1667 13.0054H9.83337M13.1667 26.3387H9.83337M23.1667 13.0054H19.8334M23.1667 26.3387H19.8334" stroke="#737373" stroke-width="1.5" stroke-linecap="round"/>
</svg>
