<svg width="48" height="49" viewBox="0 0 48 49" fill="none" xmlns="http://www.w3.org/2000/svg">
<path d="M32.25 40.2615H27.75V36.177L34.4153 32.0115L27.75 27.846V23.0115H32.25V17.0115H27.75V11.7615H33.75V1.26147H20.25V11.7615H26.25V17.0115H21.75V19.2615H15V20.7615H21.75V23.0115H26.25V27.846L19.5848 32.0115L26.25 36.177V40.2615H21.75C20.5095 40.2615 19.5 41.271 19.5 42.5115V45.5115C19.5 46.752 20.5095 47.7615 21.75 47.7615H32.25C33.4905 47.7615 34.5 46.752 34.5 45.5115V42.5115C34.5 41.271 33.4905 40.2615 32.25 40.2615ZM21.75 2.76147H32.25V10.2615H21.75V2.76147ZM23.25 18.5115H30.75V21.5115H23.25V18.5115ZM27 29.1457L31.5847 32.0115L27 34.8772L22.4152 32.0115L27 29.1457ZM33 45.5115C33 45.9247 32.6632 46.2615 32.25 46.2615H21.75C21.3368 46.2615 21 45.9247 21 45.5115V42.5115C21 42.0982 21.3368 41.7615 21.75 41.7615H32.25C32.6632 41.7615 33 42.0982 33 42.5115V45.5115Z" fill="#1C1C1C"/>
<path d="M13.7197 41.5417L15.4395 43.2615H8.862C8.6355 42.6262 8.13525 42.126 7.5 41.8995V26.0115H6V41.8995C5.12925 42.21 4.5 43.035 4.5 44.0115C4.5 45.252 5.5095 46.2615 6.75 46.2615C7.7265 46.2615 8.5515 45.6322 8.862 44.7615H15.4395L13.7197 46.4812L14.7803 47.5417L18.3105 44.0115L14.7803 40.4812L13.7197 41.5417ZM6.75 44.7615C6.33675 44.7615 6 44.4247 6 44.0115C6 43.5982 6.33675 43.2615 6.75 43.2615C7.16325 43.2615 7.5 43.5982 7.5 44.0115C7.5 44.4247 7.16325 44.7615 6.75 44.7615Z" fill="#1C1C1C"/>
<path d="M45.75 29.8995V8.62347C46.6207 8.31297 47.25 7.48797 47.25 6.51147C47.25 5.27097 46.2405 4.26147 45 4.26147C44.0235 4.26147 43.1985 4.89072 42.888 5.76147H35.25V7.26147H42.888C43.1145 7.89672 43.6147 8.39697 44.25 8.62347V29.9002C43.6147 30.1267 43.1145 30.627 42.888 31.2622H37.8105L39.5302 29.5425L38.4697 28.482L34.9395 32.0115L38.4697 35.5417L39.5302 34.4812L37.8105 32.7615H42.888C43.1985 33.6322 44.0235 34.2615 45 34.2615C46.2405 34.2615 47.25 33.252 47.25 32.0115C47.25 31.035 46.6207 30.21 45.75 29.8995ZM45 5.76147C45.4132 5.76147 45.75 6.09822 45.75 6.51147C45.75 6.92472 45.4132 7.26147 45 7.26147C44.5867 7.26147 44.25 6.92472 44.25 6.51147C44.25 6.09822 44.5867 5.76147 45 5.76147ZM45 32.7615C44.5867 32.7615 44.25 32.4247 44.25 32.0115C44.25 31.5982 44.5867 31.2615 45 31.2615C45.4132 31.2615 45.75 31.5982 45.75 32.0115C45.75 32.4247 45.4132 32.7615 45 32.7615Z" fill="#1C1C1C"/>
<path d="M13.2907 20.0116L6.74998 15.3398L0.209229 20.0116L6.74998 24.6833L13.2907 20.0116ZM6.74998 17.1833L10.7092 20.0116L6.74998 22.8398L2.79073 20.0116L6.74998 17.1833Z" fill="#1C1C1C"/>
<path d="M23.25 4.26147H30.75V5.76147H23.25V4.26147Z" fill="#1C1C1C"/>
<path d="M23.25 7.26147H27.75V8.76147H23.25V7.26147Z" fill="#1C1C1C"/>
<path d="M29.25 7.26147H30.75V8.76147H29.25V7.26147Z" fill="#1C1C1C"/>
<path d="M42 43.2615H43.5V44.7615H42V43.2615Z" fill="#1C1C1C"/>
<path d="M39 43.2615H40.5V44.7615H39V43.2615Z" fill="#1C1C1C"/>
<path d="M36 43.2615H37.5V44.7615H36V43.2615Z" fill="#1C1C1C"/>
<path d="M14.25 7.26147H15.75V8.76147H14.25V7.26147Z" fill="#1C1C1C"/>
<path d="M17.25 7.26147H18.75V8.76147H17.25V7.26147Z" fill="#1C1C1C"/>
<path d="M11.25 7.26147H12.75V8.76147H11.25V7.26147Z" fill="#1C1C1C"/>
</svg>
