<svg width="40" height="41" viewBox="0 0 40 41" fill="none" xmlns="http://www.w3.org/2000/svg">
<path d="M38.125 35.2432H37.5C37.4937 34.8271 37.4054 34.4164 37.24 34.0345C37.0746 33.6527 36.8355 33.3073 36.5363 33.0181C36.1055 32.5817 35.5527 32.286 34.9506 32.17C34.6706 31.5925 34.2336 31.1054 33.6897 30.7647C33.1457 30.4239 32.5169 30.2432 31.875 30.2432C31.2331 30.2432 30.6043 30.4239 30.0603 30.7647C29.5164 31.1054 29.0794 31.5925 28.7994 32.17C28.1973 32.286 27.6445 32.5817 27.2137 33.0181C26.9145 33.3073 26.6754 33.6527 26.51 34.0345C26.3446 34.4164 26.2563 34.8271 26.25 35.2432H18.75V20.8682C18.75 20.7024 18.6842 20.5434 18.5669 20.4262C18.4497 20.309 18.2908 20.2432 18.125 20.2432H9.375C9.20924 20.2432 9.05027 20.309 8.93306 20.4262C8.81585 20.5434 8.75 20.7024 8.75 20.8682V35.2432H6.25V17.9734L20 6.67718L33.75 17.9734V28.9932C33.75 29.1589 33.8158 29.3179 33.9331 29.4351C34.0503 29.5523 34.2092 29.6182 34.375 29.6182C34.5408 29.6182 34.6997 29.5523 34.8169 29.4351C34.9342 29.3179 35 29.1589 35 28.9932V19.0003L35.6094 19.501C35.7366 19.6056 35.9 19.6557 36.0639 19.6405C36.2279 19.6253 36.3792 19.546 36.485 19.4198L38.6038 16.8948C38.6569 16.8315 38.6969 16.7583 38.7215 16.6794C38.7461 16.6006 38.7549 16.5176 38.7472 16.4353C38.7396 16.3531 38.7157 16.2731 38.677 16.2001C38.6383 16.1272 38.5855 16.0626 38.5217 16.0101L35 13.1172V2.74316C34.9997 2.41175 34.8679 2.09399 34.6335 1.85965C34.3992 1.6253 34.0814 1.49349 33.75 1.49316H28.75C28.4186 1.49349 28.1008 1.6253 27.8665 1.85965C27.6321 2.09399 27.5003 2.41175 27.5 2.74316V6.95646L21.5048 2.0318C21.0758 1.69433 20.5458 1.51086 20 1.51086C19.4542 1.51086 18.9242 1.69433 18.4952 2.0318L1.47827 16.01C1.41445 16.0625 1.36166 16.1271 1.32296 16.2001C1.28425 16.2731 1.26039 16.353 1.25276 16.4353C1.24513 16.5175 1.25387 16.6005 1.27849 16.6794C1.30311 16.7582 1.34311 16.8314 1.39618 16.8947L3.51501 19.4197C3.62079 19.5459 3.77212 19.6253 3.93609 19.6405C4.10005 19.6557 4.26339 19.6055 4.39056 19.5009L5 19.0003V35.2432H1.875C1.70924 35.2432 1.55027 35.309 1.43306 35.4262C1.31585 35.5434 1.25 35.7024 1.25 35.8682V38.3682C1.25 38.5339 1.31585 38.6929 1.43306 38.8101C1.55027 38.9273 1.70924 38.9932 1.875 38.9932H38.125C38.2908 38.9932 38.4497 38.9273 38.5669 38.8101C38.6842 38.6929 38.75 38.5339 38.75 38.3682V35.8682C38.75 35.7024 38.6842 35.5434 38.5669 35.4262C38.4497 35.309 38.2908 35.2432 38.125 35.2432ZM28.75 2.74316H33.75V12.0904L28.75 7.98322V2.74316ZM4.075 18.1426L2.75971 16.5753L19.2886 2.99798C19.4913 2.83817 19.7419 2.75125 20 2.75125C20.2581 2.75125 20.5087 2.83817 20.7114 2.99798L37.2403 16.5753L35.925 18.1426L20.3967 5.38538C20.285 5.29343 20.1447 5.24316 20 5.24316C19.8553 5.24316 19.715 5.29343 19.6033 5.38538L4.075 18.1426ZM28.0911 33.9086C28.3843 33.593 28.7896 33.4049 29.22 33.385C29.3513 33.3869 29.4799 33.3475 29.5876 33.2722C29.6952 33.1969 29.7764 33.0897 29.8196 32.9656C29.9655 32.5363 30.2422 32.1634 30.6108 31.8993C30.9794 31.6352 31.4215 31.4932 31.875 31.4932C32.3285 31.4932 32.7706 31.6352 33.1392 31.8993C33.5078 32.1634 33.7845 32.5363 33.9304 32.9656C33.9722 33.0905 34.0531 33.1987 34.161 33.2742C34.269 33.3497 34.3983 33.3885 34.53 33.385C34.9593 33.4094 35.363 33.5967 35.6589 33.9086C35.8403 34.0813 35.9859 34.288 36.0873 34.517C36.1888 34.746 36.2441 34.9928 36.25 35.2432H27.5C27.5059 34.9928 27.5612 34.746 27.6627 34.517C27.7641 34.288 27.9097 34.0813 28.0911 33.9086ZM10 21.4932H17.5V35.2432H10V21.4932ZM37.5 37.7432H2.5V36.4932H37.5V37.7432ZM21.875 20.2432C21.7092 20.2432 21.5503 20.309 21.4331 20.4262C21.3158 20.5434 21.25 20.7024 21.25 20.8682V28.3682C21.25 28.5339 21.3158 28.6929 21.4331 28.8101C21.5503 28.9273 21.7092 28.9932 21.875 28.9932H30.625C30.7908 28.9932 30.9497 28.9273 31.0669 28.8101C31.1842 28.6929 31.25 28.5339 31.25 28.3682V20.8682C31.25 20.7024 31.1842 20.5434 31.0669 20.4262C30.9497 20.309 30.7908 20.2432 30.625 20.2432H21.875ZM30 23.9932H26.875V21.4932H30V23.9932ZM25.625 21.4932V23.9932H22.5V21.4932H25.625ZM22.5 25.2432H25.625V27.7432H22.5V25.2432ZM26.875 27.7432V25.2432H30V27.7432H26.875Z" fill="#494949"/>
</svg>
