<svg width="48" height="49" viewBox="0 0 48 49" fill="none" xmlns="http://www.w3.org/2000/svg">
<g clip-path="url(#clip0_1_3625)">
<mask id="mask0_1_3625" style="mask-type:luminance" maskUnits="userSpaceOnUse" x="0" y="0" width="48" height="49">
<path d="M0 0.511478H48V48.5115H0V0.511478Z" fill="white"/>
</mask>
<g mask="url(#mask0_1_3625)">
<path d="M24 4.29468V1.21462" stroke="#1C1C1C" stroke-width="2" stroke-miterlimit="10" stroke-linecap="round" stroke-linejoin="round"/>
</g>
<path d="M12.1066 9.22095L9.92871 7.04313" stroke="#1C1C1C" stroke-width="2" stroke-miterlimit="10" stroke-linecap="round" stroke-linejoin="round"/>
<path d="M38.0712 35.1855L35.8933 33.0076" stroke="#1C1C1C" stroke-width="2" stroke-miterlimit="10" stroke-linecap="round" stroke-linejoin="round"/>
<path d="M7.18028 21.1143H4.10022" stroke="#1C1C1C" stroke-width="2" stroke-miterlimit="10" stroke-linecap="round" stroke-linejoin="round"/>
<path d="M43.8998 21.1143H40.8197" stroke="#1C1C1C" stroke-width="2" stroke-miterlimit="10" stroke-linecap="round" stroke-linejoin="round"/>
<path d="M12.1066 33.0076L9.92871 35.1855" stroke="#1C1C1C" stroke-width="2" stroke-miterlimit="10" stroke-linecap="round" stroke-linejoin="round"/>
<path d="M38.0712 7.04313L35.8933 9.22095" stroke="#1C1C1C" stroke-width="2" stroke-miterlimit="10" stroke-linecap="round" stroke-linejoin="round"/>
<mask id="mask1_1_3625" style="mask-type:luminance" maskUnits="userSpaceOnUse" x="0" y="0" width="48" height="49">
<path d="M0 0.511478H48V48.5115H0V0.511478Z" fill="white"/>
</mask>
<g mask="url(#mask1_1_3625)">
<path d="M31.1286 32.249C31.4865 31.8378 31.884 31.4566 32.3174 31.1111C35.3868 28.6646 37.3538 24.894 37.3538 20.6638C37.3538 13.3471 31.4697 7.4049 24.1754 7.31096C16.7928 7.2159 10.6881 13.2035 10.6463 20.5866C10.6405 21.6152 10.7511 22.6172 10.9655 23.5799" stroke="#1C1C1C" stroke-width="2" stroke-miterlimit="10" stroke-linecap="round" stroke-linejoin="round"/>
<path d="M12.0731 26.676C12.9487 28.4094 14.191 29.9258 15.6982 31.1234C17.8089 32.8008 19.0537 35.3376 19.0537 38.0336L28.9462 38.0339C28.9462 37.0189 29.1235 36.0275 29.457 35.096" stroke="#1C1C1C" stroke-width="2" stroke-miterlimit="10" stroke-linecap="round" stroke-linejoin="round"/>
<path d="M29.5102 41.1521H18.4897C18.0245 41.1521 17.6472 40.7749 17.6472 40.3096V38.8766C17.6472 38.4113 18.0245 38.034 18.4897 38.034H29.5102C29.9754 38.034 30.3527 38.4113 30.3527 38.8766V40.3096C30.3527 40.7749 29.9754 41.1521 29.5102 41.1521Z" stroke="#1C1C1C" stroke-width="2" stroke-miterlimit="10" stroke-linecap="round" stroke-linejoin="round"/>
<path d="M29.5102 44.2703H18.4897C18.0245 44.2703 17.6472 43.893 17.6472 43.4277V41.9948C17.6472 41.5294 18.0245 41.1521 18.4897 41.1521H29.5102C29.9754 41.1521 30.3527 41.5294 30.3527 41.9948V43.4277C30.3527 43.893 29.9754 44.2703 29.5102 44.2703Z" stroke="#1C1C1C" stroke-width="2" stroke-miterlimit="10" stroke-linecap="round" stroke-linejoin="round"/>
<path d="M19.2689 44.3802L20.356 46.8119C20.627 47.4181 21.229 47.8083 21.8929 47.8083H26.1071C26.7711 47.8083 27.373 47.4181 27.6441 46.812L28.7312 44.3802H19.2689Z" stroke="#1C1C1C" stroke-width="2" stroke-miterlimit="10" stroke-linecap="round" stroke-linejoin="round"/>
<path d="M21.9219 38.0339V31.699" stroke="#1C1C1C" stroke-width="2" stroke-miterlimit="10" stroke-linecap="round" stroke-linejoin="round"/>
<path d="M26.0781 38.0339V31.699" stroke="#1C1C1C" stroke-width="2" stroke-miterlimit="10" stroke-linecap="round" stroke-linejoin="round"/>
<path d="M27.3694 31.699H20.6307C20.1064 31.699 19.6814 31.2739 19.6814 30.7496V29.4862C19.6814 28.9619 20.1064 28.5369 20.6307 28.5369H27.3694C27.8937 28.5369 28.3187 28.9619 28.3187 29.4862V30.7496C28.3187 31.2739 27.8937 31.699 27.3694 31.699Z" stroke="#1C1C1C" stroke-width="2" stroke-miterlimit="10" stroke-linecap="round" stroke-linejoin="round"/>
</g>
</g>
<defs>
<clipPath id="clip0_1_3625">
<rect width="48" height="48" fill="white" transform="translate(0 0.511475)"/>
</clipPath>
</defs>
</svg>
