<svg width="48" height="49" viewBox="0 0 48 49" fill="none" xmlns="http://www.w3.org/2000/svg">
<path d="M12.9383 21.3072C16.2611 23.3633 20.0925 24.4494 24 24.4431C32.728 24.4815 37.0644 13.6071 30.7237 7.63725C34.4387 8.98633 37.6458 11.4508 39.906 14.6931C38.6064 16.5553 36.987 18.1725 35.1229 19.4696C34.9638 19.5846 34.856 19.7574 34.8229 19.9509C34.7897 20.1444 34.8338 20.3432 34.9456 20.5046C35.0574 20.666 35.2281 20.7771 35.4209 20.8141C35.6138 20.851 35.8134 20.8109 35.977 20.7022C38.1352 19.2003 39.9887 17.3023 41.439 15.1091C41.5212 14.9859 41.5651 14.8412 41.5651 14.6931C41.5651 14.545 41.5212 14.4003 41.439 14.2771C39.5252 11.4059 36.9321 9.05166 33.8899 7.42337C30.8478 5.79508 27.4506 4.94312 24.0001 4.94312C20.5495 4.94312 17.1523 5.79508 14.1102 7.42337C11.068 9.05166 8.47487 11.4059 6.56109 14.2771C6.47904 14.4001 6.43519 14.5447 6.43506 14.6926C6.43493 14.8405 6.47851 14.9852 6.56034 15.1084C8.21126 17.613 10.3876 19.7283 12.9383 21.3072ZM12.88 9.91515C14.2406 8.96829 15.7184 8.20237 17.2765 7.63665C16.3232 8.54868 15.5637 9.64375 15.0437 10.8563C14.5237 12.0688 14.2537 13.3738 14.25 14.6931C14.3119 15.5802 14.3443 18.7312 15.7312 18.3128C15.9193 18.2481 16.0741 18.1113 16.1614 17.9325C16.2487 17.7538 16.2614 17.5476 16.1968 17.3595C12.9556 6.9537 27.9709 1.81993 31.8033 12.0273C33.7115 17.1754 29.503 23.0876 23.9999 22.943C20.8802 22.9506 17.8048 22.2045 15.0354 20.7683C12.2659 19.3321 9.88435 17.2481 8.09326 14.6938C9.39379 12.8305 11.0145 11.2125 12.88 9.91515Z" fill="#1C1C1C"/>
<path d="M24 18.7146C29.3164 18.5455 29.3152 10.8372 23.9999 10.6689C18.6836 10.838 18.6849 18.5463 24 18.7146ZM24 12.169C24.664 12.1767 25.2982 12.446 25.7649 12.9182C26.2317 13.3905 26.4935 14.0278 26.4935 14.6918C26.4935 15.3558 26.2317 15.9931 25.7649 16.4654C25.2981 16.9376 24.6639 17.2069 23.9999 17.2146C23.336 17.2068 22.7018 16.9376 22.235 16.4653C21.7682 15.993 21.5065 15.3558 21.5065 14.6917C21.5065 14.0277 21.7683 13.3905 22.2351 12.9182C22.7019 12.4459 23.336 12.1767 24 12.169Z" fill="#1C1C1C"/>
<path d="M24 26.6926C23.8011 26.6926 23.6104 26.7717 23.4697 26.9123C23.3291 27.053 23.2501 27.2437 23.25 27.4426V41.5193L21.2575 39.5265C21.1159 39.3904 20.9266 39.3153 20.7303 39.3172C20.5339 39.3192 20.3462 39.398 20.2073 39.5369C20.0685 39.6758 19.9896 39.8635 19.9877 40.0599C19.9858 40.2562 20.0609 40.4455 20.197 40.5871L23.4695 43.86C23.5392 43.9297 23.6219 43.985 23.7129 44.0228C23.8039 44.0605 23.9015 44.0799 24 44.0799C24.0986 44.0799 24.1962 44.0605 24.2872 44.0228C24.3782 43.985 24.4609 43.9297 24.5306 43.86L27.8031 40.587C27.9392 40.4454 28.0143 40.2562 28.0124 40.0598C28.0104 39.8635 27.9316 39.6757 27.7927 39.5369C27.6539 39.398 27.4661 39.3192 27.2698 39.3172C27.0734 39.3153 26.8841 39.3904 26.7426 39.5265L24.75 41.5193V27.4426C24.75 27.2437 24.671 27.053 24.5304 26.9123C24.3897 26.7717 24.199 26.6926 24 26.6926Z" fill="#1C1C1C"/>
<path d="M3.05823 35.23C3.11875 35.3652 3.21644 35.4804 3.33992 35.5621C3.4634 35.6439 3.60757 35.6889 3.75563 35.6918H8.37854C8.57492 35.688 8.76197 35.6073 8.89949 35.467C9.03701 35.3268 9.11405 35.1382 9.11404 34.9418C9.11403 34.7454 9.03699 34.5568 8.89945 34.4166C8.76192 34.2763 8.57487 34.1956 8.37849 34.1918H5.56165L14.1427 25.6108C14.2123 25.5411 14.2676 25.4585 14.3053 25.3675C14.3429 25.2765 14.3623 25.179 14.3623 25.0805C14.3623 24.982 14.3429 24.8845 14.3053 24.7935C14.2676 24.7025 14.2123 24.6199 14.1427 24.5502C14.0731 24.4806 13.9904 24.4253 13.8994 24.3877C13.8084 24.35 13.7109 24.3306 13.6124 24.3306C13.5139 24.3306 13.4164 24.35 13.3254 24.3877C13.2345 24.4253 13.1518 24.4806 13.0822 24.5502L4.5 33.1324V30.3133C4.49617 30.1169 4.41546 29.9299 4.27522 29.7923C4.13498 29.6548 3.9464 29.5778 3.74998 29.5778C3.55356 29.5778 3.36498 29.6548 3.22475 29.7924C3.08452 29.9299 3.00382 30.1169 3 30.3133V34.9418C3.00026 35.0408 3.02005 35.1387 3.05823 35.23Z" fill="#1C1C1C"/>
<path d="M44.25 29.5632C44.0511 29.5632 43.8603 29.6423 43.7197 29.7829C43.579 29.9236 43.5 30.1143 43.5 30.3132V33.1323L34.9178 24.5502C34.7763 24.4142 34.587 24.3391 34.3907 24.3411C34.1944 24.3431 34.0067 24.4219 33.8679 24.5608C33.7291 24.6996 33.6502 24.8873 33.6482 25.0836C33.6463 25.2799 33.7213 25.4692 33.8573 25.6108L42.4384 34.1918H39.6215C39.4251 34.1956 39.238 34.2763 39.1005 34.4166C38.963 34.5568 38.886 34.7454 38.886 34.9418C38.886 35.1382 38.963 35.3268 39.1005 35.467C39.2381 35.6073 39.4251 35.688 39.6215 35.6918H44.2444C44.4428 35.6887 44.6324 35.6089 44.7733 35.469C44.9142 35.3292 44.9954 35.1402 45 34.9418V30.3132C45 30.1143 44.921 29.9236 44.7803 29.7829C44.6397 29.6423 44.4489 29.5632 44.25 29.5632Z" fill="#1C1C1C"/>
</svg>
