<svg width="37" height="31" viewBox="0 0 37 31" fill="none" xmlns="http://www.w3.org/2000/svg">
<path d="M29.5268 28.3403H30.3438C32.2601 28.3403 33.7845 27.4672 35.1531 26.2463C38.63 23.1447 30.4568 20.007 27.6666 20.007M24.3333 3.45495C24.7118 3.37988 25.1048 3.34033 25.508 3.34033C28.5411 3.34033 31 5.57892 31 8.34033C31 11.1017 28.5411 13.3403 25.508 13.3403C25.1048 13.3403 24.7118 13.3008 24.3333 13.2257" stroke="#737373" stroke-width="1.5" stroke-linecap="round"/>
<path d="M5.96885 21.8591C4.0039 22.9121 -1.1481 25.0622 1.9898 27.7527C3.52265 29.0671 5.22985 30.0071 7.3762 30.0071H19.6238C21.7702 30.0071 23.4773 29.0671 25.0102 27.7527C28.1482 25.0622 22.9962 22.9121 21.0312 21.8591C16.4233 19.3897 10.5767 19.3897 5.96885 21.8591Z" stroke="#737373" stroke-width="1.5"/>
<path d="M20.1666 7.507C20.1666 11.1889 17.1818 14.1737 13.5 14.1737C9.81808 14.1737 6.83331 11.1889 6.83331 7.507C6.83331 3.8251 9.81808 0.840332 13.5 0.840332C17.1818 0.840332 20.1666 3.8251 20.1666 7.507Z" stroke="#737373" stroke-width="1.5"/>
</svg>
