<svg width="39" height="30" viewBox="0 0 39 30" fill="none" xmlns="http://www.w3.org/2000/svg">
<path d="M34.1233 25.0041C35.3722 25.0041 36.3655 24.2183 37.2575 23.1193C39.0832 20.8698 36.0855 19.0721 34.9423 18.1918C33.78 17.2968 32.4823 16.7898 31.1667 16.6708M29.5 13.3375C31.8012 13.3375 33.6667 11.472 33.6667 9.17082C33.6667 6.86963 31.8012 5.00415 29.5 5.00415" stroke="#737373" stroke-width="1.5" stroke-linecap="round"/>
<path d="M4.87656 25.0041C3.62772 25.0041 2.63441 24.2183 1.74254 23.1193C-0.0832293 20.8698 2.91441 19.0721 4.05771 18.1918C5.21991 17.2968 6.51759 16.7898 7.83329 16.6708M8.66662 13.3375C6.36544 13.3375 4.49996 11.472 4.49996 9.17082C4.49996 6.86963 6.36544 5.00415 8.66662 5.00415" stroke="#737373" stroke-width="1.5" stroke-linecap="round"/>
<path d="M12.973 20.1894C11.27 21.2424 6.80494 23.3926 9.52446 26.0831C10.8529 27.3974 12.3325 28.3374 14.1927 28.3374H24.8073C26.6675 28.3374 28.147 27.3974 29.4755 26.0831C32.195 23.3926 27.73 21.2424 26.027 20.1894C22.0335 17.7201 16.9665 17.7201 12.973 20.1894Z" stroke="#737373" stroke-width="1.5" stroke-linecap="round" stroke-linejoin="round"/>
<path d="M25.3333 7.50423C25.3333 10.7259 22.7216 13.3376 19.5 13.3376C16.2783 13.3376 13.6666 10.7259 13.6666 7.50423C13.6666 4.28257 16.2783 1.6709 19.5 1.6709C22.7216 1.6709 25.3333 4.28257 25.3333 7.50423Z" stroke="#737373" stroke-width="1.5"/>
</svg>
